# xmcd
#
# Track frame offsets: 
#        150
#        22428
#        44476
#        66803
#        98592
#        120566
#        137168
#        158821
#        178589
#        195918
#        216758
#
# Disc length: 3228 seconds
#
# Revision: 0
# Processed by: cddbd v1.5.2PL0 Copyright (c) Steve Scherf et al.
# Submitted via: ExactAudioCopy v0.99pb4
#
DISCID=990c9a0b
DTITLE=Pantera - The Great Southern Trendkill
DYEAR=1900
DGENRE=Bebob
TTITLE0=The Great Southern Trendkill
TTITLE1=War Nerve
TTITLE2=Drag The Waters
TTITLE3=10´s
TTITLE4=13 Steps To Nowhere
TTITLE5=Suicide Note Pt. I
TTITLE6=Suicide Note Pt. II
TTITLE7=Living Trough Me (Hell´s Wrath)
TTITLE8=Floods
TTITLE9=The Underground In America
TTITLE10=(Reprise) Sandblaster Skin
EXTD=
EXTT0=
EXTT1=
EXTT2=
EXTT3=
EXTT4=
EXTT5=
EXTT6=
EXTT7=
EXTT8=
EXTT9=
EXTT10=
PLAYORDER=
